<svg xmlns="http://www.w3.org/2000/svg" viewBox="0 0 64 64" width="64" height="64" role="img" aria-label="Satisfactory Tool favicon">
  <title>Satisfactory Tool</title>
  <desc>Industrial gear with a hexagonal core — FICSIT orange on dark.</desc>
  <defs>
    <mask id="hexcut">
      <rect width="64" height="64" fill="#ffffff"/>
      <polygon points="22,32 27,23.4 37,23.4 42,32 37,40.6 27,40.6" fill="#000000"/>
    </mask>
  </defs>
  <rect width="64" height="64" rx="14" fill="#0b0d0c"/>
  <g fill="#f48229" mask="url(#hexcut)">
    <rect x="28" y="3" width="8" height="12" rx="2"/>
    <rect x="28" y="3" width="8" height="12" rx="2" transform="rotate(45 32 32)"/>
    <rect x="28" y="3" width="8" height="12" rx="2" transform="rotate(90 32 32)"/>
    <rect x="28" y="3" width="8" height="12" rx="2" transform="rotate(135 32 32)"/>
    <rect x="28" y="3" width="8" height="12" rx="2" transform="rotate(180 32 32)"/>
    <rect x="28" y="3" width="8" height="12" rx="2" transform="rotate(225 32 32)"/>
    <rect x="28" y="3" width="8" height="12" rx="2" transform="rotate(270 32 32)"/>
    <rect x="28" y="3" width="8" height="12" rx="2" transform="rotate(315 32 32)"/>
    <circle cx="32" cy="32" r="20"/>
  </g>
</svg>
